<svg width="100" height="20" viewBox="0 0 100 20" fill="none" xmlns="http://www.w3.org/2000/svg">
<g clip-path="url(#clip0_7473_45310)">
<path d="M10 14.3911L13.4583 16.4828C14.0917 16.8661 14.8667 16.2995 14.7 15.5828L13.7833 11.6495L16.8417 8.99948C17.4 8.51615 17.1 7.59948 16.3667 7.54115L12.3417 7.19948L10.7667 3.48281C10.4833 2.80781 9.51667 2.80781 9.23333 3.48281L7.65833 7.19115L3.63333 7.53281C2.9 7.59115 2.6 8.50781 3.15833 8.99115L6.21667 11.6411L5.3 15.5745C5.13333 16.2911 5.90833 16.8578 6.54167 16.4745L10 14.3911Z" fill="#F8C51B"/>
</g>
<g clip-path="url(#clip1_7473_45310)">
<path d="M30 14.3911L33.4583 16.4828C34.0917 16.8661 34.8667 16.2995 34.7 15.5828L33.7833 11.6495L36.8417 8.99948C37.4 8.51615 37.1 7.59948 36.3667 7.54115L32.3417 7.19948L30.7667 3.48281C30.4833 2.80781 29.5167 2.80781 29.2333 3.48281L27.6583 7.19115L23.6333 7.53281C22.9 7.59115 22.6 8.50781 23.1583 8.99115L26.2167 11.6411L25.3 15.5745C25.1333 16.2911 25.9083 16.8578 26.5417 16.4745L30 14.3911Z" fill="#F8C51B"/>
</g>
<g clip-path="url(#clip2_7473_45310)">
<path d="M50 14.3911L53.4583 16.4828C54.0917 16.8661 54.8667 16.2995 54.7 15.5828L53.7833 11.6495L56.8417 8.99948C57.4 8.51615 57.1 7.59948 56.3667 7.54115L52.3417 7.19948L50.7667 3.48281C50.4833 2.80781 49.5167 2.80781 49.2333 3.48281L47.6583 7.19115L43.6333 7.53281C42.9 7.59115 42.6 8.50781 43.1583 8.99115L46.2167 11.6411L45.3 15.5745C45.1333 16.2911 45.9083 16.8578 46.5417 16.4745L50 14.3911Z" fill="#F8C51B"/>
</g>
<g clip-path="url(#clip3_7473_45310)">
<path d="M70 14.3911L73.4583 16.4828C74.0917 16.8661 74.8667 16.2995 74.7 15.5828L73.7833 11.6495L76.8417 8.99948C77.4 8.51615 77.1 7.59948 76.3667 7.54115L72.3417 7.19948L70.7667 3.48281C70.4833 2.80781 69.5167 2.80781 69.2333 3.48281L67.6583 7.19115L63.6333 7.53281C62.9 7.59115 62.6 8.50781 63.1583 8.99115L66.2167 11.6411L65.3 15.5745C65.1333 16.2911 65.9083 16.8578 66.5417 16.4745L70 14.3911Z" fill="#F8C51B"/>
</g>
<g clip-path="url(#clip4_7473_45310)">
<path d="M90 14.3911L93.4583 16.4828C94.0917 16.8661 94.8667 16.2995 94.7 15.5828L93.7833 11.6495L96.8417 8.99948C97.4 8.51615 97.1 7.59948 96.3667 7.54115L92.3417 7.19948L90.7667 3.48281C90.4833 2.80781 89.5167 2.80781 89.2333 3.48281L87.6583 7.19115L83.6333 7.53281C82.9 7.59115 82.6 8.50781 83.1583 8.99115L86.2167 11.6411L85.3 15.5745C85.1333 16.2911 85.9083 16.8578 86.5417 16.4745L90 14.3911Z" fill="black" fill-opacity="0.12"/>
</g>
<defs>
<clipPath id="clip0_7473_45310">
<rect width="20" height="20" fill="white"/>
</clipPath>
<clipPath id="clip1_7473_45310">
<rect width="20" height="20" fill="white" transform="translate(20)"/>
</clipPath>
<clipPath id="clip2_7473_45310">
<rect width="20" height="20" fill="white" transform="translate(40)"/>
</clipPath>
<clipPath id="clip3_7473_45310">
<rect width="20" height="20" fill="white" transform="translate(60)"/>
</clipPath>
<clipPath id="clip4_7473_45310">
<rect width="20" height="20" fill="white" transform="translate(80)"/>
</clipPath>
</defs>
</svg>
