<svg width="190" height="28" viewBox="0 0 190 28" fill="none" xmlns="http://www.w3.org/2000/svg">
<path d="M178.081 24.0463C178.188 23.7787 178.241 23.4383 178.241 23.0321V16.1618H186.323C186.999 16.1618 187.49 15.9843 187.799 15.6316C187.977 15.4298 188.108 15.2085 188.195 14.9726C188.283 14.7343 188.327 14.4619 188.327 14.1579C188.327 13.8587 188.283 13.5864 188.195 13.348C188.11 13.1073 187.977 12.8884 187.799 12.6841C187.493 12.3315 186.999 12.1539 186.323 12.1539H178.241V7.11003H187.855C188.237 7.11003 188.56 7.05653 188.823 6.94952C189.056 6.85711 189.256 6.71605 189.419 6.53366C189.616 6.30748 189.764 6.06672 189.859 5.80893C189.951 5.55844 190 5.26903 190 4.94558C190 4.62942 189.951 4.34245 189.854 4.08223C189.764 3.82687 189.616 3.58368 189.419 3.35994C189.256 3.17511 189.056 3.03648 188.823 2.94164C188.56 2.83463 188.237 2.78113 187.855 2.78113H176.079C175.296 2.78113 174.747 2.94164 174.433 3.25779C174.112 3.58125 173.951 4.14789 173.951 4.95531V23.0321C173.951 23.4358 174.005 23.7763 174.114 24.0487C174.199 24.2749 174.333 24.4621 174.513 24.6153C174.944 24.985 175.469 25.1723 176.079 25.1723C176.405 25.1723 176.695 25.1261 176.948 25.0361C177.201 24.9461 177.441 24.8026 177.667 24.6105L177.672 24.6056C177.852 24.4548 177.988 24.2651 178.078 24.0414L178.081 24.0463Z" fill="black"/>
<path d="M157.161 20.3667H165.486C165.865 21.4148 166.359 23.1172 166.809 23.9952C166.899 24.2602 167.008 24.4816 167.135 24.6615C167.244 24.8172 167.37 24.9436 167.507 25.0385C167.653 25.1406 167.818 25.2184 168 25.2744C168.185 25.3279 168.397 25.3571 168.635 25.3571C168.796 25.3571 168.944 25.3449 169.078 25.3206C169.219 25.2938 169.374 25.2501 169.54 25.1893C169.71 25.126 169.858 25.0604 169.982 24.9898C170.106 24.9169 170.23 24.8318 170.35 24.732C170.461 24.6396 170.556 24.5448 170.637 24.4451C170.719 24.3429 170.795 24.2262 170.863 24.0997C170.921 23.9903 170.962 23.8784 170.989 23.769C171.016 23.662 171.028 23.5331 171.028 23.3896C171.028 23.1975 171.016 23.0345 170.992 22.8983C170.967 22.7646 170.931 22.6308 170.882 22.5019L163.144 3.92899C163.049 3.69795 162.942 3.49853 162.825 3.33072C162.711 3.16778 162.582 3.02673 162.441 2.91486C162.224 2.73732 161.816 2.64734 161.222 2.64734C160.86 2.64734 160.561 2.67895 160.323 2.74462C160.155 2.79083 160.033 2.84433 159.96 2.90513C159.814 3.03402 159.681 3.17751 159.561 3.33802C159.43 3.51555 159.308 3.72227 159.204 3.95087L150.719 22.5554C150.639 22.7281 150.597 23.0078 150.597 23.392C150.597 23.5428 150.612 23.679 150.641 23.803C150.67 23.9271 150.711 24.0389 150.765 24.1362C150.826 24.2529 150.904 24.3648 150.991 24.4718C151.086 24.5861 151.181 24.6834 151.276 24.7588C151.4 24.8512 151.526 24.9388 151.66 25.0117C151.803 25.0895 151.947 25.1552 152.088 25.2063C152.244 25.2598 152.394 25.2987 152.545 25.323C152.691 25.3473 152.854 25.3595 153.029 25.3595C153.197 25.3595 153.355 25.3352 153.503 25.289C153.664 25.2379 153.832 25.1528 154.007 25.0336C154.167 24.929 154.316 24.788 154.449 24.6153C154.595 24.428 154.732 24.1946 154.851 23.9222L156.281 20.3715H157.161V20.3667ZM162.684 17.5383H157.399L161.256 7.93201L164.508 17.5383H162.682H162.684Z" fill="black"/>
<path d="M139.495 16.1957C139.52 16.2614 139.546 16.3149 139.571 16.3562L143.817 24.265C143.926 24.4693 144.048 24.642 144.182 24.7806C144.306 24.9095 144.439 25.0116 144.581 25.087C144.916 25.2645 145.252 25.3545 145.587 25.3545C145.748 25.3545 145.896 25.3424 146.03 25.318C146.171 25.2913 146.327 25.2475 146.492 25.1867C146.643 25.1308 146.791 25.0603 146.935 24.98C147.071 24.907 147.197 24.8171 147.316 24.7198C147.421 24.6274 147.518 24.5277 147.606 24.4158C147.701 24.2942 147.781 24.1726 147.842 24.051C147.9 23.9221 147.949 23.7956 147.976 23.6716C148.005 23.5427 148.019 23.3992 148.019 23.2411C148.019 23.066 147.983 22.8642 147.912 22.638C147.825 22.3608 147.693 22.0641 147.521 21.7528L143.399 15.2813L144.85 14.6903C145.305 14.5055 145.728 14.2477 146.12 13.9194C146.526 13.5789 146.903 13.1582 147.244 12.6669C147.905 11.7063 148.238 10.5049 148.238 9.06277C148.238 8.6615 148.204 8.26509 148.134 7.87597C148.063 7.47713 147.959 7.08801 147.82 6.71106C147.686 6.3414 147.516 5.99119 147.312 5.66531C147.105 5.33699 146.859 5.02327 146.575 4.73143C146.305 4.45176 145.986 4.19154 145.624 3.9532C145.247 3.70514 144.831 3.4887 144.384 3.30387C143.943 3.1239 143.45 2.98528 142.905 2.89043C142.35 2.79559 141.738 2.74695 141.069 2.74695H133.586C132.839 2.74695 132.314 2.90503 132.015 3.21389C131.703 3.53977 131.545 4.11128 131.545 4.92599V23.0271C131.545 23.8321 131.708 24.3988 132.029 24.7246C132.35 25.0481 132.909 25.2086 133.707 25.2086C135.125 25.2086 135.835 24.4571 135.835 22.9566V6.7524H140.911C141.368 6.7524 141.791 6.79861 142.178 6.89102C142.62 6.99073 143.005 7.1634 143.328 7.3993C143.71 7.67898 143.992 8.04864 144.174 8.50828C144.33 8.8974 144.405 9.33029 144.405 9.80939C144.405 10.3055 144.337 10.7554 144.201 11.1567C144.043 11.6188 143.793 12.0103 143.452 12.3313C142.844 12.9053 142.071 13.1874 141.137 13.1874H140.638C140.388 13.1874 140.181 13.2214 140.021 13.2847C139.88 13.3406 139.758 13.4282 139.656 13.5425C139.539 13.6786 139.449 13.8392 139.388 14.0264C139.315 14.2502 139.276 14.5201 139.276 14.8338L139.272 14.8946C139.264 15.0624 139.269 15.2254 139.284 15.381C139.298 15.5221 139.325 15.6583 139.362 15.7823C139.41 15.9452 139.456 16.0814 139.498 16.1909L139.495 16.1957Z" fill="black"/>
<path d="M127.812 24.0704C127.919 23.798 127.973 23.4551 127.973 23.0489V15.4417C127.973 15.0745 127.919 14.7632 127.817 14.5079C127.725 14.2817 127.588 14.0871 127.408 13.9315C127.194 13.7442 126.961 13.6007 126.708 13.5083C126.455 13.4159 126.173 13.3673 125.862 13.3673C125.563 13.3673 125.293 13.411 125.052 13.501C124.804 13.5959 124.57 13.7394 124.351 13.9315C123.975 14.2622 123.787 14.7656 123.787 15.4417V20.955L122.411 20.8796C121.881 20.8504 121.392 20.7848 120.952 20.6802C120.49 20.5707 120.052 20.4127 119.641 20.2133C119.232 20.0138 118.867 19.7852 118.546 19.5323C118.213 19.2696 117.907 18.9681 117.632 18.63C117.367 18.3042 117.138 17.954 116.946 17.5867C116.759 17.2244 116.603 16.8328 116.482 16.4194C116.367 16.0278 116.282 15.629 116.226 15.2326C116.168 14.8143 116.139 14.4033 116.139 14.002C116.139 13.591 116.175 13.1727 116.248 12.752C116.321 12.3337 116.428 11.9227 116.572 11.5238C116.725 11.0982 116.915 10.6994 117.138 10.3322C117.362 9.96737 117.632 9.6196 117.943 9.29371C118.242 8.97999 118.588 8.68815 118.974 8.42307C119.329 8.17501 119.728 7.95613 120.168 7.764C120.614 7.56702 121.1 7.42353 121.62 7.32625C122.141 7.2314 122.673 7.1852 123.218 7.1852H125.747C125.947 7.1852 126.132 7.16817 126.297 7.13412C126.453 7.10494 126.591 7.06117 126.713 7.00523C126.864 6.93714 126.995 6.86175 127.109 6.78149C127.228 6.69637 127.328 6.61125 127.408 6.5237C127.484 6.44101 127.562 6.33644 127.637 6.21241C127.71 6.09081 127.771 5.96678 127.815 5.84275C127.861 5.71629 127.9 5.5728 127.926 5.41229C127.951 5.27124 127.963 5.12289 127.963 4.96967C127.963 4.81889 127.951 4.67541 127.926 4.53678C127.9 4.39087 127.863 4.24981 127.815 4.12092C127.773 4.00418 127.712 3.88015 127.637 3.75369C127.567 3.63695 127.484 3.52265 127.389 3.41808C127.314 3.3281 127.214 3.24054 127.1 3.15786C126.978 3.07031 126.852 2.99492 126.72 2.93412C126.594 2.87818 126.455 2.83441 126.299 2.80279C126.137 2.76874 125.952 2.75415 125.75 2.75415H123.756C122.737 2.75415 121.788 2.83197 120.918 2.98762C120.061 3.14083 119.274 3.36701 118.556 3.66614C117.822 3.97257 117.158 4.33007 116.559 4.7362C115.968 5.13748 115.429 5.59712 114.945 6.11513C114.461 6.63071 114.04 7.1852 113.685 7.7786C113.32 8.38416 113.021 9.0262 112.787 9.70715C112.304 11.1031 112.063 12.589 112.063 14.1625C112.063 14.8799 112.121 15.5779 112.238 16.2589C112.355 16.9471 112.535 17.6232 112.77 18.2896C113.001 18.9438 113.293 19.5663 113.639 20.1525C113.984 20.7361 114.388 21.2882 114.847 21.8086C115.29 22.312 115.803 22.7692 116.382 23.1875C116.968 23.6083 117.61 23.9755 118.303 24.2844C119.694 24.9069 121.336 25.2182 123.221 25.2182H125.75C126.102 25.2182 126.416 25.1696 126.689 25.0748C126.954 24.9848 127.19 24.8437 127.406 24.6565C127.579 24.5032 127.712 24.3087 127.805 24.0752L127.812 24.0704Z" fill="black"/>
<path d="M97.2519 20.3667H105.576C105.956 21.4148 106.45 23.1172 106.899 23.9952C106.989 24.2602 107.099 24.4816 107.225 24.6615C107.335 24.8172 107.461 24.9436 107.597 25.0385C107.743 25.1406 107.909 25.2184 108.091 25.2744C108.276 25.3279 108.488 25.3571 108.726 25.3571C108.886 25.3571 109.035 25.3449 109.169 25.3206C109.31 25.2938 109.465 25.2501 109.631 25.1893C109.801 25.126 109.949 25.0604 110.073 24.9898C110.197 24.9169 110.321 24.8318 110.44 24.732C110.552 24.6396 110.647 24.5448 110.727 24.4451C110.81 24.3429 110.885 24.2262 110.954 24.0997C111.012 23.9903 111.053 23.8784 111.08 23.769C111.107 23.662 111.119 23.5331 111.119 23.3896C111.119 23.1975 111.107 23.0345 111.082 22.8983C111.058 22.7646 111.022 22.6308 110.973 22.5019L103.235 3.92899C103.14 3.69795 103.033 3.49853 102.916 3.33072C102.802 3.16778 102.673 3.02673 102.532 2.91486C102.315 2.73732 101.907 2.64734 101.313 2.64734C100.951 2.64734 100.652 2.67895 100.413 2.74462C100.246 2.79083 100.124 2.84433 100.051 2.90513C99.9051 3.03402 99.7714 3.17751 99.6522 3.33802C99.5209 3.51555 99.3993 3.72227 99.2947 3.95087L90.8096 22.5554C90.7293 22.7281 90.688 23.0078 90.688 23.392C90.688 23.5428 90.7026 23.679 90.7318 23.803C90.7609 23.9271 90.8023 24.0389 90.8558 24.1362C90.9166 24.2529 90.9944 24.3648 91.082 24.4718C91.1768 24.5861 91.2717 24.6834 91.3665 24.7588C91.4905 24.8512 91.617 24.9388 91.7508 25.0117C91.8942 25.0895 92.0377 25.1552 92.1788 25.2063C92.3344 25.2598 92.4852 25.2987 92.636 25.323C92.7819 25.3473 92.9449 25.3595 93.12 25.3595C93.2878 25.3595 93.4458 25.3352 93.5942 25.289C93.7547 25.2379 93.9225 25.1528 94.0976 25.0336C94.2581 24.929 94.4065 24.788 94.5402 24.6153C94.6861 24.428 94.8223 24.1946 94.9415 23.9222L96.3715 20.3715H97.2519V20.3667ZM102.775 17.5383H97.4902L101.347 7.93201L104.599 17.5383H102.772H102.775Z" fill="black"/>
<path d="M79.7539 16.1957C79.7783 16.2614 79.805 16.3149 79.8293 16.3562L84.0755 24.265C84.185 24.4693 84.3066 24.642 84.4403 24.7806C84.5644 24.9095 84.6981 25.0116 84.8392 25.087C85.1748 25.2645 85.5104 25.3545 85.846 25.3545C86.0065 25.3545 86.1549 25.3424 86.2886 25.318C86.4297 25.2913 86.5853 25.2475 86.7507 25.1867C86.9015 25.1308 87.0498 25.0603 87.1933 24.98C87.3295 24.907 87.456 24.8171 87.5752 24.7198C87.6797 24.6274 87.777 24.5277 87.8646 24.4158C87.9594 24.2942 88.0397 24.1726 88.1005 24.051C88.1588 23.9221 88.2075 23.7956 88.2342 23.6716C88.2634 23.5427 88.278 23.3992 88.278 23.2411C88.278 23.066 88.2415 22.8642 88.171 22.638C88.0834 22.3608 87.9521 22.0641 87.7794 21.7528L83.6572 15.2813L85.1091 14.6903C85.5639 14.5055 85.9871 14.2477 86.3786 13.9194C86.7848 13.5789 87.1617 13.1582 87.5022 12.6669C88.1637 11.7063 88.4969 10.5049 88.4969 9.06277C88.4969 8.6615 88.4628 8.26509 88.3923 7.87597C88.3218 7.47713 88.2172 7.08801 88.0786 6.71106C87.9448 6.3414 87.7746 5.99119 87.5703 5.66531C87.3636 5.33699 87.1179 5.02327 86.8334 4.73143C86.5634 4.45176 86.2449 4.19154 85.8825 3.9532C85.5055 3.70514 85.0897 3.4887 84.6422 3.30387C84.202 3.1239 83.7083 2.98528 83.1636 2.89043C82.6091 2.79559 81.9962 2.74695 81.3274 2.74695H73.8443C73.0976 2.74695 72.5723 2.90503 72.2732 3.21389C71.9619 3.53977 71.8038 4.11128 71.8038 4.92599V23.0271C71.8038 23.8321 71.9668 24.3988 72.2878 24.7246C72.6088 25.0481 73.1682 25.2086 73.9659 25.2086C75.3837 25.2086 76.0938 24.4571 76.0938 22.9566V6.7524H81.1693C81.6266 6.7524 82.0497 6.79861 82.4364 6.89102C82.879 6.99073 83.2633 7.1634 83.5867 7.3993C83.9685 7.67898 84.2506 8.04864 84.433 8.50828C84.5887 8.8974 84.6641 9.33029 84.6641 9.80939C84.6641 10.3055 84.596 10.7554 84.4598 11.1567C84.3017 11.6188 84.0512 12.0103 83.7107 12.3313C83.1028 12.9053 82.3294 13.1874 81.3955 13.1874H80.897C80.6465 13.1874 80.4398 13.2214 80.2792 13.2847C80.1382 13.3406 80.0166 13.4282 79.9145 13.5425C79.7977 13.6786 79.7077 13.8392 79.6469 14.0264C79.574 14.2502 79.5351 14.5201 79.5351 14.8338L79.5302 14.8946C79.5229 15.0624 79.5278 15.2254 79.5424 15.381C79.557 15.5221 79.5837 15.6583 79.6202 15.7823C79.6688 15.9452 79.715 16.0814 79.7564 16.1909L79.7539 16.1957Z" fill="black"/>
<path d="M55.2664 20.3667H63.591C63.9704 21.4148 64.4641 23.1172 64.914 23.9952C65.004 24.2602 65.1134 24.4816 65.2399 24.6615C65.3493 24.8172 65.4758 24.9436 65.612 25.0385C65.7579 25.1406 65.9233 25.2184 66.1057 25.2744C66.2905 25.3279 66.5021 25.3571 66.7404 25.3571C66.9009 25.3571 67.0493 25.3449 67.183 25.3206C67.3241 25.2938 67.4797 25.2501 67.6451 25.1893C67.8154 25.126 67.9637 25.0604 68.0877 24.9898C68.2118 24.9169 68.3358 24.8318 68.455 24.732C68.5668 24.6396 68.6617 24.5448 68.7419 24.4451C68.8246 24.3429 68.9 24.2262 68.9681 24.0997C69.0265 23.9903 69.0678 23.8784 69.0946 23.769C69.1213 23.662 69.1335 23.5331 69.1335 23.3896C69.1335 23.1975 69.1213 23.0345 69.097 22.8983C69.0727 22.7646 69.0362 22.6308 68.9876 22.5019L61.249 3.92899C61.1542 3.69795 61.0472 3.49853 60.9305 3.33072C60.8161 3.16778 60.6873 3.02673 60.5462 2.91486C60.3298 2.73732 59.9212 2.64734 59.3278 2.64734C58.9654 2.64734 58.6663 2.67895 58.428 2.74462C58.2602 2.79083 58.1386 2.84433 58.0656 2.90513C57.9197 3.03402 57.7859 3.17751 57.6668 3.33802C57.5354 3.51555 57.4138 3.72227 57.3093 3.95087L48.8241 22.5554C48.7439 22.7281 48.7025 23.0078 48.7025 23.392C48.7025 23.5428 48.7171 23.679 48.7463 23.803C48.7755 23.9271 48.8168 24.0389 48.8703 24.1362C48.9311 24.2529 49.0089 24.3648 49.0965 24.4718C49.1913 24.5861 49.2862 24.6834 49.381 24.7588C49.5051 24.8512 49.6315 24.9388 49.7653 25.0117C49.9088 25.0895 50.0523 25.1552 50.1933 25.2063C50.349 25.2598 50.4997 25.2987 50.6505 25.323C50.7964 25.3473 50.9594 25.3595 51.1345 25.3595C51.3023 25.3595 51.4604 25.3352 51.6087 25.289C51.7692 25.2379 51.937 25.1528 52.1121 25.0336C52.2726 24.929 52.421 24.788 52.5548 24.6153C52.7007 24.428 52.8369 24.1946 52.956 23.9222L54.386 20.3715H55.2664V20.3667ZM60.7894 17.5383H55.5047L59.3618 7.93201L62.6134 17.5383H60.787H60.7894Z" fill="black"/>
<path d="M36.9027 25.3569C38.3206 25.3569 39.0307 24.6054 39.0307 23.1049V6.75717H44.1062C44.5902 6.75717 45.0352 6.81554 45.4438 6.92984C45.901 7.05874 46.2998 7.25816 46.6355 7.52567C47.0246 7.83453 47.3115 8.22608 47.4988 8.70031C47.6618 9.11618 47.7444 9.58069 47.7444 10.0987C47.7444 10.5583 47.6763 10.9839 47.5426 11.3658C47.3869 11.8084 47.1486 12.1805 46.8252 12.482C46.239 13.0268 45.4778 13.2992 44.544 13.2992H43.9749C43.7366 13.2992 43.5274 13.3284 43.3547 13.3867C43.1991 13.4402 43.058 13.518 42.9389 13.6226C42.8586 13.6907 42.7954 13.7856 42.7516 13.9047C42.6859 14.0823 42.6519 14.323 42.6519 14.6246C42.6519 14.9456 42.6884 15.2229 42.7589 15.4515C42.8197 15.6436 42.9048 15.8041 43.0167 15.9354C43.0848 16.0181 43.204 16.0886 43.3693 16.1421C43.6247 16.2273 43.97 16.271 44.4053 16.271H45.6165C46.0785 16.271 46.5041 16.2297 46.8957 16.147C47.2775 16.0643 47.635 15.9427 47.9657 15.7846C48.3087 15.6144 48.6297 15.4174 48.9191 15.1912C49.2036 14.9748 49.4663 14.7194 49.707 14.4276C49.9429 14.1479 50.157 13.8293 50.3466 13.4767C50.5388 13.1216 50.7017 12.735 50.8379 12.3167C50.9741 11.8984 51.0762 11.4557 51.1468 10.9888C51.2149 10.5267 51.2513 10.0403 51.2513 9.53205C51.2513 8.97999 51.2124 8.45712 51.1395 7.96829C51.0641 7.48676 50.9522 7.03198 50.8087 6.60882C50.6774 6.21241 50.4999 5.83789 50.281 5.49012C50.0694 5.15207 49.8238 4.84321 49.5441 4.5684C49.2571 4.28629 48.9337 4.03823 48.5786 3.82665C48.2187 3.61264 47.7931 3.42051 47.3091 3.2527C46.3436 2.92196 45.1836 2.75415 43.8314 2.75415H36.7763C36.0296 2.75415 35.5043 2.91223 35.2052 3.22109C34.8939 3.54697 34.7358 4.11848 34.7358 4.93319V23.1754C34.7358 23.9804 34.8988 24.547 35.2198 24.8729C35.5408 25.1964 36.1002 25.3569 36.8979 25.3569H36.9027Z" fill="black"/>
<path d="M0 27.2345V8.33812C0 4.13081 3.40962 0.721191 7.61693 0.721191C7.65341 0.721191 7.67529 0.762535 7.65584 0.79415C6.46174 2.65947 6.4812 4.59045 7.40534 6.55792C7.86742 7.54043 8.51919 8.40621 9.32174 9.12364C10.5815 10.2521 11.8996 11.3148 13.1837 12.4141C14.317 13.3845 15.4795 14.3256 16.5593 15.3543C17.7193 16.456 18.607 17.762 19.0666 19.3233C19.0764 19.3598 19.1128 19.389 19.1493 19.4376C19.2369 19.3428 19.3147 19.265 19.3828 19.1798C20.5526 17.7523 20.6742 16.2031 19.9251 14.5518C19.4022 13.399 18.6556 12.3946 17.7826 11.4948C16.4352 10.1037 15.0296 8.77101 13.6774 7.38722C13.0062 6.7014 12.352 5.9864 11.7805 5.2179C11.4473 4.77042 11.2041 4.2135 11.0752 3.66874C10.8539 2.74702 11.4157 1.86422 12.2863 1.56752C13.2737 1.2319 14.1395 1.53347 14.5967 2.43573C14.7937 2.82241 14.9007 3.26503 14.9834 3.69306C15.0296 3.93625 15.1074 3.99462 15.3384 3.99219C16.5009 3.98246 17.661 3.98733 18.8234 3.98733C18.9061 3.98733 18.9888 3.97517 19.091 3.96787C19.1177 3.96544 19.1372 3.94112 19.1372 3.91437C19.125 3.72224 19.1177 3.54957 19.0982 3.38177C18.9937 2.44546 18.6605 1.59184 18.1741 0.796582C18.1546 0.764967 18.1765 0.726055 18.213 0.726055C22.824 0.726055 26.562 4.46399 26.562 9.07501V19.7465C26.562 23.9124 23.1864 27.288 19.0204 27.288H18.9426C18.9061 27.288 18.8842 27.2467 18.9037 27.2151C20.3313 24.9509 20.0491 22.6721 18.5535 20.4493C18.1206 19.8048 17.5977 19.2236 17.0262 18.6983C15.9002 17.6672 14.6988 16.7114 13.5363 15.7191C12.369 14.7196 11.1676 13.7565 10.0513 12.7035C8.86209 11.5848 7.95254 10.2521 7.4856 8.65914C7.47587 8.62995 7.44912 8.60563 7.41507 8.557C6.68305 9.35954 6.20638 10.2472 6.1699 11.3294C6.13586 12.363 6.49336 13.2823 6.99921 14.1578C7.69232 15.3543 8.59458 16.3879 9.56493 17.3607C10.6812 18.4794 11.8413 19.5592 12.9478 20.6877C13.6044 21.3564 14.2392 22.0593 14.7961 22.8108C15.122 23.2509 15.3579 23.7957 15.4892 24.3307C15.7105 25.2379 15.1682 26.1231 14.3219 26.4295C13.3272 26.7895 12.442 26.4976 11.9726 25.5905C11.7732 25.2063 11.671 24.7636 11.581 24.3356C11.5324 24.1021 11.474 24.0243 11.2333 24.0267C10.0611 24.0389 8.88885 24.0316 7.7142 24.034C7.64125 24.034 7.56829 24.0462 7.47344 24.0584C7.44912 24.0608 7.42723 24.0851 7.42966 24.1094C7.43939 24.2943 7.44669 24.4645 7.46371 24.6347C7.56829 25.571 7.89417 26.4247 8.38786 27.2199C8.40732 27.2515 8.38543 27.2905 8.34895 27.2905L0 27.2418L0 27.2345Z" fill="#FF9910"/>
</svg>
